PathFileType	4	(X/Y/Z)	 s06c0201.trc
DataRate	CameraRate	NumFrames	NumMarkers	Units	OrigDataRate	OrigDataStartFrame	OrigNumFrames
200	200	4	49	mm	200	1001	2000
Frame#	Time	racr			lacr			c7			jug			rlel			rdr			llel			ldr			s2			lic			ric			lasi			rasi			rpsi			lpsi			rgt			lgt			rth1			rth2			rth3			rth4			rlfc			rmfc			rsh1			rsh2			rsh3			rsh4			rlmal			rmmal			rcal			rtoe			rmt5			lth1			lth2			lth4			lth3			llfc			lmfc			llmal			lcal			lmt5			lsh1			lsh2			lsh3			lsh4			ltoe			SBIKE			LBIKE			RBIKE			
		X1	Y1	Z1	X2	Y2	Z2	X3	Y3	Z3	X4	Y4	Z4	X5	Y5	Z5	X6	Y6	Z6	X7	Y7	Z7	X8	Y8	Z8	X9	Y9	Z9	X10	Y10	Z10	X11	Y11	Z11	X12	Y12	Z12	X13	Y13	Z13	X14	Y14	Z14	X15	Y15	Z15	X16	Y16	Z16	X17	Y17	Z17	X18	Y18	Z18	X19	Y19	Z19	X20	Y20	Z20	X21	Y21	Z21	X22	Y22	Z22	X23	Y23	Z23	X24	Y24	Z24	X25	Y25	Z25	X26	Y26	Z26	X27	Y27	Z27	X28	Y28	Z28	X29	Y29	Z29	X30	Y30	Z30	X31	Y31	Z31	X32	Y32	Z32	X33	Y33	Z33	X34	Y34	Z34	X35	Y35	Z35	X36	Y36	Z36	X37	Y37	Z37	X38	Y38	Z38	X39	Y39	Z39	X40	Y40	Z40	X41	Y41	Z41	X42	Y42	Z42	X43	Y43	Z43	X44	Y44	Z44	X45	Y45	Z45	X46	Y46	Z46	X47	Y47	Z47	X48	Y48	Z48	X49	Y49	Z49	
1001	5.0050	496.141272	1259.710561	-51.055660	530.634965	1240.422440	-365.395191	505.311318	1354.888597	-210.054098	509.496649	1186.880155	-200.084187	456.163859	1015.864488	76.618057	643.577872	938.928403	-35.044985	457.819186	1005.156962	-494.058792	650.827714	929.434228	-415.516741	-22.796738	1128.009560	-251.653912	154.039269	1104.038829	-400.251149	106.240882	1112.807411	-72.591600	173.306966	1055.775779	-355.831043	146.373770	1075.308819	-103.347686	5.898581	1173.843474	-223.342124	8.498032	1164.492935	-282.901116	77.057005	1022.604589	-47.728996	143.669304	1038.209219	-430.973015	162.738754	913.996677	-20.070313	228.730302	851.503240	-17.931341	254.703832	768.104337	-26.732634	259.022166	871.990881	-28.874737	295.443094	667.576357	-37.205519	295.751948	641.826523	-144.115046	276.052575	545.615963	-16.521003	287.460563	461.019593	-36.155119	256.616544	380.298592	-44.932714	312.118993	463.491814	-69.161441	239.011095	300.829879	-51.983112	271.901225	311.448674	-145.806189	177.756006	274.204942	-102.083654	451.857195	241.113327	-99.836006	353.253692	224.185482	-30.554450	212.226018	955.734044	-436.139861	293.798145	926.882383	-425.938976	312.639480	955.240009	-411.027179	352.077889	859.252244	-421.774467	392.823893	763.963246	-392.433074	387.788123	750.728541	-277.575136	95.375601	552.883603	-375.520118	29.120430	586.765160	-328.341255	114.226328	410.340025	-402.873838	319.608862	687.505678	-410.073723	262.743973	626.693381	-385.489959	181.223733	593.295463	-389.398923	277.765316	614.041496	-352.477347	171.657197	343.993683	-345.745274	-203.175130	870.040056	-213.306796	-48.541674	83.471898	-419.517721	-50.188054	79.580691	-22.167371	
1002	5.0100	495.716949	1262.180917	-51.695041	530.125619	1241.269351	-365.980343	505.344356	1355.858685	-211.489013	508.406926	1188.464343	-201.528820	457.693168	1017.845567	75.224249	645.301815	939.532794	-35.231363	457.356423	1005.890461	-493.931891	650.278446	929.788496	-414.842356	-22.562753	1127.741724	-248.878798	152.700498	1104.538175	-399.298692	108.089587	1113.855845	-70.962656	173.407409	1057.161339	-353.896122	148.225838	1076.571738	-102.075721	5.695932	1173.974102	-220.678430	8.999217	1164.850562	-283.143791	78.381915	1021.427964	-46.278914	143.873782	1041.165107	-429.070133	161.444332	911.004086	-18.687960	225.456544	846.852534	-16.795086	249.097355	762.575633	-26.568491	256.457782	866.485683	-27.692710	288.117994	661.814745	-36.836056	288.180974	636.196125	-143.718987	269.408880	539.937459	-15.851635	281.710725	455.475261	-35.348078	251.534334	374.388066	-44.280979	306.308573	458.111864	-68.409068	234.810674	295.113300	-51.286585	268.339126	304.624803	-145.136059	173.394237	269.849027	-101.403639	446.609075	229.827442	-100.100173	347.819196	215.370120	-30.466258	213.813094	959.867046	-434.216490	296.071048	932.675458	-424.948367	314.633628	961.632522	-410.757788	355.692951	866.043766	-421.086628	398.824666	772.620433	-391.046296	393.648485	759.099106	-276.295588	101.059024	562.010167	-375.177953	34.067971	595.397257	-328.093775	120.722105	419.712754	-402.636077	325.941143	696.330594	-408.664657	268.734518	635.510011	-384.279006	187.255392	602.544071	-388.496477	283.612815	622.972746	-351.431654	178.708826	353.810550	-345.558605	-203.240828	870.023498	-212.972054	-48.531463	83.539950	-419.482847	-50.184096	79.581996	-22.104408	
1003	5.0150	495.431929	1264.095316	-52.817818	529.570102	1241.845928	-366.616203	505.655444	1356.606461	-212.941623	507.261097	1189.805366	-202.929651	459.294392	1019.822782	73.762668	647.094782	940.435119	-35.156899	456.869616	1006.524195	-493.826857	649.960534	930.819944	-414.988656	-22.555561	1128.250275	-246.039934	151.205655	1105.358273	-398.310373	110.168413	1114.936362	-69.247331	173.338296	1058.733855	-352.457117	150.155825	1077.649485	-100.649482	6.031840	1174.520929	-218.198139	8.225080	1165.179776	-279.980294	79.765470	1020.956047	-44.693959	143.518136	1044.701758	-426.986081	160.596919	909.565945	-14.780083	222.041240	843.001357	-15.709279	246.185310	758.602868	-24.959436	253.655777	861.868137	-26.649491	280.861076	656.826644	-36.173441	280.502733	631.802963	-143.463059	262.788150	534.864599	-15.120091	275.663370	450.773946	-34.530786	246.096925	369.322260	-43.548051	300.274426	453.440570	-67.756274	230.526181	289.855944	-50.727980	264.140451	298.659677	-144.327855	168.910800	266.364869	-100.575457	440.944372	218.728741	-100.327123	341.986253	207.037309	-30.376659	214.722453	964.217312	-432.455354	297.664228	938.782829	-423.928895	315.849066	968.271989	-410.283115	358.419360	873.769719	-420.337639	404.566798	781.651292	-389.502260	399.177134	768.346565	-274.934701	106.864130	570.829494	-374.695690	39.183983	603.557132	-327.665368	127.691221	428.940164	-402.323830	331.988527	705.412305	-407.166753	274.761696	644.595925	-383.134990	193.275600	611.414331	-387.619146	289.521333	631.956852	-350.152563	186.356719	363.614886	-345.446962	-203.301821	870.034767	-212.573125	-48.530419	83.653883	-419.450537	-50.172274	79.605575	-22.066745	
1004	5.0200	494.711223	1265.443418	-54.929992	529.090673	1242.273422	-367.210574	506.133464	1357.111088	-214.415931	506.159155	1190.923975	-204.304315	460.818420	1021.811384	72.417238	648.908728	941.383660	-34.872241	456.486387	1007.095995	-493.863550	650.667784	931.095814	-413.160199	-22.572464	1128.983734	-243.150636	149.719319	1106.391574	-397.357666	112.335557	1116.200149	-67.669447	173.044687	1060.685252	-351.099433	151.890767	1078.733832	-99.504178	5.966953	1174.923284	-214.937876	7.567087	1166.000927	-277.035218	81.083611	1021.015042	-43.006958	142.713156	1048.631637	-424.713262	158.845214	908.100910	-13.152985	218.354527	839.910153	-14.710224	237.282219	754.623227	-25.665844	250.381824	857.897372	-25.716208	273.331388	652.732397	-35.522533	272.689980	628.169037	-143.205861	256.074558	530.787622	-14.434062	269.433219	446.520038	-33.784656	240.419742	364.879236	-42.683361	293.986837	449.377286	-66.874748	226.195061	285.351118	-50.111679	259.847092	293.334148	-143.409283	164.197579	263.909495	-99.683722	434.756249	207.935210	-100.620590	335.792313	199.242525	-30.253154	214.970239	968.793976	-430.955592	298.556521	945.199075	-422.979227	316.422613	975.306188	-409.826579	360.985881	881.475217	-419.252854	410.081602	791.022887	-387.903512	404.207280	777.997324	-272.936296	112.671568	579.320976	-374.133868	44.255828	611.020649	-327.118313	135.135634	437.742293	-401.974344	337.770672	714.793265	-405.701710	280.147934	654.006781	-381.506189	198.996549	620.166577	-386.757554	295.451036	640.979490	-348.871208	194.727112	373.255992	-345.291830	-203.320953	870.132794	-212.445714	-48.531002	83.769635	-419.404722	-50.167075	79.627635	-22.025559	
